<?xml version="1.0" encoding="ISO-8859-1"?>
<!-- Generator: Adobe Illustrator 13.0.0, SVG Export Plug-In . SVG Version: 6.00 Build 14948)  -->
<!DOCTYPE svg PUBLIC "-//W3C//DTD SVG 1.1//EN" "http://www.w3.org/Graphics/SVG/1.1/DTD/svg11.dtd">
<svg version="1.1" id="Layer_1" xmlns="http://www.w3.org/2000/svg" xmlns:xlink="http://www.w3.org/1999/xlink" x="0px" y="0px" width="30px" height="24px" viewBox="0 0 250 300" style="enable-background:new 0 0 250 300;" xml:space="preserve">
<g>
	<g>
		<g>
			<defs>
				<path id="SVGID_1_" d="M239.938,40.271c-23.854-13.176-50.916-19.393-72.651-22.32c-23.732-3.188-41.099-2.46-41.013-2.584      c0.05,0.067-4.582-0.097-12.35,0.167C106,15.811,94.81,16.532,81.986,18.411C71.873,19.897,60.75,22.1,49.41,25.362      c-12.352,3.558-24.952,8.38-36.775,14.909c0,9.165,0,18.331,0,27.496c0,2.659,0,7.823,0,10.477c0,7.526,0,12.553,0,20.082      c0,25.544,0,51.092,0,76.636c0.007,27.27,9.397,51.236,29.949,68.318c4.658,3.939,11.807,8.436,20.016,13.003      c6.962,3.867,14.69,7.784,22.284,11.466c8.957,4.333,17.735,8.317,24.884,11.476c9.811,4.333,16.56,7.106,16.506,7.053      c-0.082,0.072,14.931-6.104,32.682-14.39c18.898-8.828,40.882-20.027,51.021-28.607c20.561-17.082,29.962-41.049,29.962-68.327      c0-25.535,0-51.083,0-76.627c0-7.529,0-13.386,0-20.915c0-2.659,0-6.985,0-9.644C239.938,58.602,239.938,49.435,239.938,40.271"/>
			</defs>
			<clipPath id="SVGID_2_">
				<use xlink:href="#SVGID_1_" style="overflow:visible;"/>
			</clipPath>
			<linearGradient id="SVGID_3_" gradientUnits="userSpaceOnUse" x1="9" y1="149.5" x2="244.5" y2="149.5">
				<stop offset="0" style="stop-color:#FFD66B"/>
				<stop offset="0.2821" style="stop-color:#FDE2D2"/>
				<stop offset="0.4908" style="stop-color:#E9AA70"/>
				<stop offset="1" style="stop-color:#DC931D"/>
			</linearGradient>
			<rect x="9" y="13" style="clip-path:url(#SVGID_2_);fill:url(#SVGID_3_);" width="235.5" height="273"/>
		</g>
		<g>
			<defs>
				<path id="SVGID_4_" d="M231.024,42.028c-33.251-3.497-69.891-4.414-106.363,2.855c-10.585,2.128-21.157,4.938-31.589,8.591      c-11.147,3.908-22.126,8.767-32.784,14.767C46.661,75.917,33.575,85.456,21.363,97.22c-0.002,2.517-0.009,5.033-0.016,7.547      c-0.018,12.074-0.029,24.159-0.034,36.245c-0.009,11.342,0,22.69,0.009,34.039c0.018,25.301,9.11,46.589,26.897,61.366      c10.938,5.661,21.878,11.326,32.822,16.991c8.355,4.333,16.716,8.656,25.074,12.989c6.721,3.475,13.441,6.953,20.163,10.44      c13.396-5.584,62.211-27.025,78.068-40.421c17.791-14.777,26.872-36.065,26.891-61.366c0.026-24.387,0.014-48.788-0.027-73.15      c-0.036-16.551-0.081-33.086-0.145-49.57C231.047,48.897,231.038,45.461,231.024,42.028"/>
			</defs>
			<clipPath id="SVGID_5_">
				<use xlink:href="#SVGID_4_" style="overflow:visible;"/>
			</clipPath>
			<linearGradient id="SVGID_6_" gradientUnits="userSpaceOnUse" x1="15.9927" y1="132.3569" x2="116.9927" y2="155.3569">
				<stop offset="0" style="stop-color:#DBC9B8"/>
				<stop offset="0.3114" style="stop-color:#775024"/>
				<stop offset="1" style="stop-color:#4E2700"/>
			</linearGradient>
			<rect x="20" y="36.5" style="clip-path:url(#SVGID_5_);fill:url(#SVGID_6_);" width="215" height="242.5"/>
		</g>
		<path style="fill:#3F1800;" d="M126.278,276.838l-78.059-40.421C64.07,249.813,112.885,271.254,126.278,276.838"/>
		<path style="fill:#3F1800;" d="M241.397,174.952c0,14.096-2.493,27.07-7.382,38.573c-5.137,12.008-12.898,22.403-23.104,30.87    c-10.269,8.697-32.569,19.996-49.466,27.938c-9.668,4.55-18.491,8.448-24.206,10.915c-3.416,1.481-9.393,3.971-10.965,4.617v0.805    c1.576-0.66,7.829-3.276,11.263-4.758c5.711-2.467,14.552-6.37,24.216-10.915c24.64-11.593,41.347-21.017,49.642-28.038    c10.27-8.543,18.116-19.038,23.276-31.154c4.946-11.593,7.459-24.649,7.459-38.854V38.976l-0.732,0.425V174.952"/>
		<path style="fill:#3F1800;" d="M11.925,38.99c41.56-22.976,92.959-25.196,113.111-25.085h1.238h1.26    c20.15-0.11,71.545,2.11,113.104,25.085l0.759,0.411l0.732-0.425l-1.144-0.624c-41.709-23.061-93.239-25.284-113.466-25.175    h-1.246h-1.238c-20.213-0.108-71.757,2.114-113.463,25.168l-1.141,0.624l0.736,0.432L11.925,38.99"/>
		<path style="fill:#3F1800;" d="M17.894,213.806c5.175,12.116,13.011,22.611,23.296,31.164c8.281,7.012,24.973,16.436,49.62,28.028    c9.661,4.545,18.51,8.448,24.22,10.915c3.42,1.481,9.69,4.098,11.245,4.758v-0.805c-1.555-0.646-7.534-3.136-10.956-4.617    c-5.71-2.467-14.547-6.365-24.209-10.915c-16.895-7.942-39.183-19.241-49.445-27.925c-10.206-8.48-17.972-18.876-23.098-30.884    c-4.895-11.503-7.38-24.478-7.38-38.573L11.168,39.401l-0.736-0.432l0.021,135.983C10.459,189.156,12.962,202.213,17.894,213.806"/>
		<path style="fill:#3F1800;" d="M221.32,106.931l0.542,0.438l0.736-0.357l-0.822-0.66c-3.551-2.819-11.268-7.504-23.176-7.276    l0.026,0.727C210.297,99.581,217.855,104.168,221.32,106.931"/>
		<path style="fill:#3F1800;" d="M219.387,126.62c-3.573-3.786-9.826-7.886-16.676-8.003l-0.004,0.734    c6.618,0.118,12.682,4.086,16.143,7.775l3.799,4.032l-0.728-1.843L219.387,126.62"/>
		<path style="fill:#3F1800;" d="M192.465,126.823l0.723,0.014c0.172-6.912,6.714-7.536,9.52-7.486l0.004-0.734    C200.362,118.578,192.654,119.042,192.465,126.823"/>
		<polyline style="fill:#3F1800;" points="221.921,129.315 222.648,131.158 222.599,107.013 221.862,107.37 221.921,129.315   "/>
		<path style="fill:#3F1800;" d="M157.831,112.976c6.587,8.582,10.053,21.094,10.057,36.206h0.732    c0-15.272-3.528-27.945-10.211-36.644c-6.943-9.052-17.249-13.832-29.804-13.85v0.734    C140.926,99.434,151.032,104.121,157.831,112.976"/>
		<path style="fill:#3F1800;" d="M170.255,127.365c0-10.124,4.894-16.535,9.009-20.154c5.214-4.572,12.279-7.271,19.363-7.407    l-0.026-0.727c-7.238,0.142-14.476,2.902-19.815,7.583c-4.229,3.718-9.267,10.316-9.267,20.705c0,0.057,0,0.131,0,0.186h0.736    C170.255,127.49,170.255,127.422,170.255,127.365"/>
		<path style="fill:#3F1800;" d="M190.306,158.29l0.37-0.623c-17.019-10.089-20.366-18.69-20.421-30.116h-0.736    C169.568,139.25,172.984,148.028,190.306,158.29"/>
		<path style="fill:#3F1800;" d="M203.326,139.365l1.59,0.956l0.37-0.621l-1.581-0.956c-6.993-4.163-10.63-6.573-10.518-11.907    l-0.723-0.014C192.329,132.83,196.698,135.418,203.326,139.365"/>
		<path style="fill:#3F1800;" d="M194.688,200.975l0.005,0.728c9.646-0.095,17.688-3.42,23.263-9.614    c4.698-5.236,7.44-12.274,7.693-19.797l-0.741-0.022C224.442,186.391,214.914,200.753,194.688,200.975"/>
		<path style="fill:#3F1800;" d="M190.676,157.667l-0.37,0.623c8.81,5.25,11.258,8.069,11.366,13.21l0.732-0.018    C202.282,166.093,199.657,162.998,190.676,157.667"/>
		<path style="fill:#3F1800;" d="M199.955,178.448c1.6-1.635,2.458-3.948,2.458-6.663c0-0.104-0.009-0.203-0.009-0.303l-0.732,0.018    c0.005,0.095,0.005,0.186,0.005,0.285c0,2.525-0.781,4.648-2.241,6.153c-1.726,1.767-4.332,2.688-7.549,2.688v0.732    C195.302,181.358,198.099,180.346,199.955,178.448"/>
		<path style="fill:#3F1800;" d="M221.429,155.525c2.634,4.667,3.669,9.677,3.479,16.743l0.741,0.022    c0.334-12.352-2.959-22.106-20.362-32.592l-0.37,0.621C213.125,145.265,218.375,150.108,221.429,155.525"/>
		<path style="fill:#3F1800;" d="M158.283,186.354c-6.578,9.533-16.106,14.57-27.55,14.589v0.718    c11.701,0,21.433-5.146,28.146-14.891c6.37-9.243,9.741-22.246,9.741-37.588h-0.732    C167.888,164.385,164.567,177.238,158.283,186.354"/>
		<path style="fill:#3F1800;" d="M173.571,173.524c5.228,4.694,12.582,7.834,18.315,7.834v-0.732    c-5.566,0-12.723-3.063-17.813-7.635l-3.655-3.284l0.731,1.64L173.571,173.524"/>
		<path style="fill:#3F1800;" d="M171.81,194.649l-0.719-0.425l-0.74,0.411l1.093,0.638c7.106,4.22,15.365,6.51,23.249,6.429    l-0.005-0.728C186.939,201.047,178.803,198.806,171.81,194.649"/>
		<polyline style="fill:#3F1800;" points="171.149,171.347 170.418,169.707 170.351,194.636 171.091,194.225 171.149,171.347   "/>
		<path style="fill:#3F1800;" d="M123.717,120.257l-0.741-0.524c0,1.854,0,58.888,0,60.89l0.741-0.556    C123.717,177.103,123.717,123.038,123.717,120.257"/>
		<path style="fill:#3F1800;" d="M123.717,180.066l-0.741,0.556c1.265,0.375,3.108,0.809,5.173,0.809v-0.728    C126.428,180.703,124.878,180.392,123.717,180.066"/>
		<path style="fill:#3F1800;" d="M139.985,174.021c2.738-5.223,4.121-13.382,4.121-24.288h-0.724    c-0.009,10.779-1.351,18.839-4.039,23.949c-2.525,4.775-6.076,7.021-11.194,7.021v0.728    C133.498,181.431,137.37,179.004,139.985,174.021"/>
		<path style="fill:#3F1800;" d="M122.99,200.207l0.732,0.895c2.105,0.37,4.445,0.578,7.012,0.56v-0.718    C127.869,200.943,125.267,200.69,122.99,200.207"/>
		<path style="fill:#3F1800;" d="M123.017,240.74l0.009,1.482l0.732,0.723l-0.005-2.205c0,0-0.031-34.818-0.031-39.639l-0.732-0.895    C122.994,203.631,123.017,240.74,123.017,240.74"/>
		<path style="fill:#3F1800;" d="M99.829,240.704c-0.224-43.321-0.285-87.921-0.186-132.526l0.007-0.795l-0.723-0.395l-0.007,1.184    c-0.104,44.612-0.043,89.211,0.178,132.533l0.014,2.178l0.716-0.723V240.704"/>
		<rect x="99.113" y="242.159" style="fill:#3F1800;" width="24.645" height="0.786"/>
		<path style="fill:#3F1800;" d="M92.831,103.028c-0.11,29.167-0.099,58.958-0.018,88.554l0.005,0.777l0.734,0.384l-0.004-1.161    c-0.088-29.597-0.082-59.387,0.018-88.554l0.004-2.214l-0.732,0.748L92.831,103.028"/>
		<path style="fill:#3F1800;" d="M92.169,192.802c-8.089,5.489-18.896,8.317-31.272,8.2l-0.007,0.731    c12.517,0.118,23.481-2.751,31.688-8.321l0.974-0.669l-0.734-0.384L92.169,192.802"/>
		<path style="fill:#3F1800;" d="M69.616,179.104l-0.741-0.429c-1.868,0.953-4.421,1.478-7.319,1.459l-0.005,0.728    C64.775,180.889,67.587,180.251,69.616,179.104"/>
		<path style="fill:#3F1800;" d="M68.825,150.89c0,9.275,0.021,18.546,0.05,27.785l0.741,0.429    c-0.032-9.374-0.05-18.789-0.05-28.214c0-15.963,0.043-31.941,0.111-47.744l0.007-1.441l-0.721-0.723l-0.02,2.164    C68.875,118.949,68.825,134.926,68.825,150.89"/>
		<path style="fill:#3F1800;" d="M37.564,192.196c-5.148-5.674-7.696-14.159-7.714-25.178h-0.734    c0.032,11.204,2.634,19.847,7.906,25.68c5.358,5.887,13.386,8.932,23.868,9.035l0.007-0.731    C50.629,200.889,42.78,197.938,37.564,192.196"/>
		<path style="fill:#3F1800;" d="M54.138,176.61c1.479,2.832,3.91,4.219,7.414,4.251l0.005-0.728    c-2.06-0.018-8.324-0.077-8.354-12.135l-0.734,0.005C52.479,171.608,53.04,174.505,54.138,176.61"/>
		<rect x="29.109" y="101.419" style="fill:#3F1800;" width="0.741" height="65.599"/>
		<path style="fill:#3F1800;" d="M52.572,103.351c-0.097,21.554-0.136,43.31-0.104,64.653l0.734-0.005    c-0.039-21.338-0.007-43.094,0.097-64.648l0.02-2.228l-0.741,0.746L52.572,103.351"/>
		<polyline style="fill:#3F1800;" points="91.369,101.568 92.837,101.562 93.569,100.814 91.355,100.828 68.963,100.981     69.684,101.704 91.369,101.568   "/>
		<rect x="29.109" y="101.124" style="fill:#3F1800;" width="24.209" height="1.023"/>
		<path style="fill:#3F1800;" d="M128.75,119.486c5.245,0,8.62,1.968,10.92,6.424c2.493,4.812,3.704,12.598,3.713,23.823h0.724    c0-11.342-1.229-19.255-3.786-24.162c-2.413-4.656-6.095-6.813-11.57-6.826V119.486"/>
		<path style="fill:#3F1800;" d="M128.75,119.486v-0.741c-2.209,0-4.333,0.463-5.774,0.987l0.741,0.524    C125.041,119.832,126.88,119.486,128.75,119.486"/>
		<path style="fill:#3F1800;" d="M98.928,106.988l0.723,0.395l0.667-0.434c7.769-5.066,17.023-7.526,28.289-7.526v-0.734    c-11.412,0-20.81,2.503-28.684,7.651L98.928,106.988"/>
		<path style="fill:#3F1800;" d="M124.955,46.324c-40.541,8.124-74.899,25.46-102.128,51.538l0.734,0.321    c27.093-25.86,61.242-43.071,101.534-51.14c30.297-6.045,64.253-7.025,103.734-3.016l0.736-0.667    C189.728,39.265,155.491,40.234,124.955,46.324"/>
		<path style="fill:#3F1800;" d="M229.051,150.862c0,8.087-0.01,16.156-0.014,24.188c-0.022,24.876-9.045,45.504-26.108,59.677    c-14.692,12.41-59.491,32.533-76.65,39.726v0.79c16.97-7.098,62.283-27.414,77.124-39.951    c17.231-14.313,26.344-35.148,26.375-60.241c0.005-8.032,0.014-16.102,0.014-24.188c0-35.568-0.081-71.621-0.226-107.501    l-0.736,0.667C228.979,79.684,229.051,115.515,229.051,150.862"/>
		<path style="fill:#3F1800;" d="M49.625,234.723c-17.055-14.168-26.082-34.806-26.1-59.672c-0.014-7.915-0.014-15.938-0.014-24.075    c0-17.215,0.018-34.887,0.05-52.793l-0.734-0.321c-0.031,18.017-0.047,35.795-0.047,53.114c0,8.137,0.004,16.17,0.011,24.075    c0.018,25.093,9.14,45.92,26.359,60.241c14.769,12.465,60.137,32.831,77.128,39.951v-0.79    C109.102,267.233,64.24,247.065,49.625,234.723"/>
		<path style="fill:#3F1800;" d="M127.521,12.438l-1.246,0.011l-1.234-0.011c-20.273-0.111-71.944,2.125-113.804,25.275L9.7,38.538    l0.732,0.431l1.141-0.624c41.707-23.054,93.25-25.277,113.463-25.168h1.238h1.246c20.227-0.108,71.757,2.114,113.466,25.175    l1.144,0.624l0.736-0.438l-1.527-0.825C199.481,14.564,147.793,12.328,127.521,12.438"/>
		<path style="fill:#3F1800;" d="M242.13,174.952c0,14.204-2.513,27.261-7.459,38.854c-5.16,12.116-13.007,22.611-23.276,31.154    c-8.295,7.021-25.002,16.445-49.642,28.038c-9.664,4.545-18.505,8.448-24.216,10.915c-3.434,1.481-9.687,4.098-11.263,4.758v0.785    c1.576-0.659,8.118-3.384,11.557-4.865c5.715-2.484,14.561-6.379,24.247-10.929c24.676-11.615,41.429-21.085,49.777-28.142    c10.378-8.62,18.297-19.196,23.502-31.431c4.97-11.674,7.499-24.835,7.509-39.138V38.538l-0.736,0.438V174.952"/>
		<path style="fill:#3F1800;" d="M115.029,283.913c-5.71-2.467-14.559-6.37-24.22-10.915c-24.647-11.593-41.338-21.017-49.62-28.028    c-10.285-8.553-18.121-19.048-23.296-31.164c-4.932-11.593-7.434-24.649-7.441-38.854L10.432,38.969L9.7,38.538l0.018,136.414    c0.011,14.303,2.528,27.464,7.504,39.138c5.209,12.234,13.12,22.811,23.493,31.431c8.349,7.057,25.094,16.526,49.777,28.142    c9.668,4.55,18.523,8.444,24.238,10.929c3.424,1.481,9.989,4.206,11.543,4.865v-0.785    C124.72,288.011,118.449,285.395,115.029,283.913"/>
		<g>
			<defs>
				<path id="SVGID_7_" d="M199.436,177.938c1.46-1.505,2.241-3.628,2.241-6.153c0-0.1,0-0.19-0.005-0.285l-0.736,0.014      c0.005,0.095,0.005,0.186,0.005,0.275c0,2.367-0.687,4.252-2.033,5.644c-1.581,1.612-4.012,2.453-7.021,2.453v0.74      C195.104,180.626,197.71,179.705,199.436,177.938"/>
			</defs>
			<clipPath id="SVGID_8_">
				<use xlink:href="#SVGID_7_" style="overflow:visible;"/>
			</clipPath>
			<path style="clip-path:url(#SVGID_8_);fill:#492300;" d="M199.436,177.938c1.46-1.505,2.241-3.628,2.241-6.153     c0-0.1,0-0.19-0.005-0.285l-0.736,0.014c0.005,0.095,0.005,0.186,0.005,0.275c0,2.367-0.687,4.252-2.033,5.644     c-1.581,1.612-4.012,2.453-7.021,2.453v0.74C195.104,180.626,197.71,179.705,199.436,177.938"/>
			
				<linearGradient id="SVGID_9_" gradientUnits="userSpaceOnUse" x1="-476.2861" y1="411.3623" x2="-471.6602" y2="411.3623" gradientTransform="matrix(2.1164 0 0 -4.7729 1199.9032 2139.4365)">
				<stop offset="0" style="stop-color:#492300"/>
				<stop offset="1" style="stop-color:#492300"/>
			</linearGradient>
			<rect x="191.887" y="171.5" style="clip-path:url(#SVGID_8_);fill:url(#SVGID_9_);" width="9.79" height="9.126"/>
		</g>
		<polyline style="fill:#3F1800;" points="170.418,169.707 169.695,168.076 169.623,195.043 170.351,194.636 170.418,169.707   "/>
		<g>
			<defs>
				<path id="SVGID_10_" d="M225.648,172.291l0.719,0.031c0.356-12.623-2.991-22.571-20.701-33.253l-0.38,0.63      C222.689,150.185,225.982,159.939,225.648,172.291"/>
			</defs>
			<clipPath id="SVGID_11_">
				<use xlink:href="#SVGID_10_" style="overflow:visible;"/>
			</clipPath>
			<path style="clip-path:url(#SVGID_11_);fill:#70491C;" d="M225.648,172.291l0.719,0.031c0.356-12.623-2.991-22.571-20.701-33.253     l-0.38,0.63C222.689,150.185,225.982,159.939,225.648,172.291"/>
			
				<linearGradient id="SVGID_12_" gradientUnits="userSpaceOnUse" x1="-499.2666" y1="445.1445" x2="-494.6389" y2="445.1445" gradientTransform="matrix(4.5568 0 0 -9.988 2480.3667 4601.8062)">
				<stop offset="0" style="stop-color:#70491C"/>
				<stop offset="1" style="stop-color:#9C7955"/>
			</linearGradient>
			<rect x="205.286" y="139.069" style="clip-path:url(#SVGID_11_);fill:url(#SVGID_12_);" width="21.438" height="33.253"/>
		</g>
		<g>
			<defs>
				<path id="SVGID_13_" d="M171.443,195.273l-1.093-0.638l-0.728,0.407l1.445,0.872c7.224,4.282,15.613,6.609,23.624,6.515v-0.728      C186.809,201.783,178.55,199.493,171.443,195.273 M225.648,172.291l0.719,0.031c-0.253,7.698-3.045,14.896-7.87,20.254      c-5.72,6.348-13.942,9.754-23.805,9.854v-0.728c9.646-0.095,17.688-3.42,23.263-9.614      C222.653,186.852,225.396,179.813,225.648,172.291z"/>
			</defs>
			<clipPath id="SVGID_14_">
				<use xlink:href="#SVGID_13_" style="overflow:visible;"/>
			</clipPath>
			<path style="clip-path:url(#SVGID_14_);fill:#492300;" d="M171.443,195.273l-1.093-0.638l-0.728,0.407l1.445,0.872     c7.224,4.282,15.613,6.609,23.624,6.515v-0.728C186.809,201.783,178.55,199.493,171.443,195.273 M225.648,172.291l0.719,0.031     c-0.253,7.698-3.045,14.896-7.87,20.254c-5.72,6.348-13.942,9.754-23.805,9.854v-0.728c9.646-0.095,17.688-3.42,23.263-9.614     C222.653,186.852,225.396,179.813,225.648,172.291z"/>
			
				<linearGradient id="SVGID_15_" gradientUnits="userSpaceOnUse" x1="-516.7769" y1="440.5332" x2="-512.1504" y2="440.5332" gradientTransform="matrix(12.2657 0 0 -9.3352 6508.2734 4299.8789)">
				<stop offset="0" style="stop-color:#492300"/>
				<stop offset="1" style="stop-color:#9C7955"/>
			</linearGradient>
			<rect x="169.623" y="172.291" style="clip-path:url(#SVGID_14_);fill:url(#SVGID_15_);" width="56.744" height="30.233"/>
		</g>
		<g>
			<defs>
				<path id="SVGID_16_" d="M174.073,172.991c5.091,4.572,12.247,7.635,17.813,7.635v-0.74c-5.322,0-12.442-3.05-17.326-7.437      l-4.865-4.373l0.723,1.631L174.073,172.991"/>
			</defs>
			<clipPath id="SVGID_17_">
				<use xlink:href="#SVGID_16_" style="overflow:visible;"/>
			</clipPath>
			<path style="clip-path:url(#SVGID_17_);fill:#663F0F;" d="M174.073,172.991c5.091,4.572,12.247,7.635,17.813,7.635v-0.74     c-5.322,0-12.442-3.05-17.326-7.437l-4.865-4.373l0.723,1.631L174.073,172.991"/>
			
				<linearGradient id="SVGID_18_" gradientUnits="userSpaceOnUse" x1="-506.2925" y1="419.875" x2="-501.665" y2="419.875" gradientTransform="matrix(4.7961 0 0 -5.5125 2597.9253 2488.9165)">
				<stop offset="0" style="stop-color:#663F0F"/>
				<stop offset="1" style="stop-color:#492300"/>
			</linearGradient>
			<rect x="169.695" y="168.076" style="clip-path:url(#SVGID_17_);fill:url(#SVGID_18_);" width="22.191" height="12.55"/>
		</g>
		<g>
			<defs>
				<path id="SVGID_19_" d="M203.705,138.744l1.581,0.956l0.38-0.63l-1.59-0.956c-6.939-4.125-10.256-6.334-10.152-11.258      l-0.736-0.018C193.075,132.17,196.712,134.581,203.705,138.744"/>
			</defs>
			<clipPath id="SVGID_20_">
				<use xlink:href="#SVGID_19_" style="overflow:visible;"/>
			</clipPath>
			<path style="clip-path:url(#SVGID_20_);fill:#70491C;" d="M203.705,138.744l1.581,0.956l0.38-0.63l-1.59-0.956     c-6.939-4.125-10.256-6.334-10.152-11.258l-0.736-0.018C193.075,132.17,196.712,134.581,203.705,138.744"/>
			
				<linearGradient id="SVGID_21_" gradientUnits="userSpaceOnUse" x1="-564.5684" y1="519.709" x2="-559.9413" y2="519.709" gradientTransform="matrix(-2.6961 0 0 5.5802 -1316.4722 -2766.8015)">
				<stop offset="0" style="stop-color:#70491C"/>
				<stop offset="1" style="stop-color:#9C7955"/>
			</linearGradient>
			<rect x="193.075" y="126.837" style="clip-path:url(#SVGID_20_);fill:url(#SVGID_21_);" width="12.591" height="12.862"/>
		</g>
		<g>
			<defs>
				<path id="SVGID_22_" d="M53.3,103.351c-0.104,21.554-0.136,43.31-0.097,64.648h0.732c-0.036-21.338-0.005-43.094,0.092-64.642      l0.018-2.973l-0.725,0.739L53.3,103.351"/>
			</defs>
			<clipPath id="SVGID_23_">
				<use xlink:href="#SVGID_22_" style="overflow:visible;"/>
			</clipPath>
			<path style="clip-path:url(#SVGID_23_);fill:#9C7955;" d="M53.3,103.351c-0.104,21.554-0.136,43.31-0.097,64.648h0.732     c-0.036-21.338-0.005-43.094,0.092-64.642l0.018-2.973l-0.725,0.739L53.3,103.351"/>
			
				<linearGradient id="SVGID_24_" gradientUnits="userSpaceOnUse" x1="-543.1958" y1="475.832" x2="-538.5693" y2="475.832" gradientTransform="matrix(0 -14.6153 -2.9907 0 1476.6835 -7770.9751)">
				<stop offset="0" style="stop-color:#9C7955"/>
				<stop offset="1" style="stop-color:#AF906F"/>
			</linearGradient>
			<rect x="53.164" y="100.385" style="clip-path:url(#SVGID_23_);fill:url(#SVGID_24_);" width="0.881" height="67.614"/>
		</g>
		<path style="fill:#8A643E;" d="M124.444,120.799l-0.728-0.542c0,2.781,0,56.846,0,59.81l0.728-0.574    C124.444,175.603,124.444,124.488,124.444,120.799"/>
		<rect x="28.381" y="100.385" style="fill:#785228;" width="25.664" height="1.035"/>
		<path style="fill:#70491C;" d="M68.825,150.89c0-15.963,0.05-31.941,0.118-47.744l0.02-2.164l-0.734-0.728l-0.007,2.892    c-0.082,15.799-0.118,31.781-0.118,47.744c0,9.126,0.014,18.243,0.036,27.329l0.734,0.456    C68.846,169.436,68.825,160.165,68.825,150.89"/>
		<g>
			<defs>
				<path id="SVGID_25_" d="M61.556,180.134l0.004-0.736c-2.076-0.009-7.601-0.055-7.626-11.398h-0.732      C53.232,180.057,59.496,180.116,61.556,180.134 M61.556,180.134l0.004-0.736c2.591,0.018,4.861-0.402,6.58-1.179l0.734,0.456      C67.007,179.628,64.454,180.152,61.556,180.134z"/>
			</defs>
			<clipPath id="SVGID_26_">
				<use xlink:href="#SVGID_25_" style="overflow:visible;"/>
			</clipPath>
			<path style="clip-path:url(#SVGID_26_);fill:#532D00;" d="M61.556,180.134l0.004-0.736c-2.076-0.009-7.601-0.055-7.626-11.398     h-0.732C53.232,180.057,59.496,180.116,61.556,180.134 M61.556,180.134l0.004-0.736c2.591,0.018,4.861-0.402,6.58-1.179     l0.734,0.456C67.007,179.628,64.454,180.152,61.556,180.134z"/>
			
				<linearGradient id="SVGID_27_" gradientUnits="userSpaceOnUse" x1="-524.5337" y1="526.9199" x2="-519.9077" y2="526.9199" gradientTransform="matrix(-3.3879 0 0 5.4271 -1708.189 -2685.5537)">
				<stop offset="0" style="stop-color:#532D00"/>
				<stop offset="1" style="stop-color:#9C7955"/>
			</linearGradient>
			<rect x="53.203" y="167.999" style="clip-path:url(#SVGID_26_);fill:url(#SVGID_27_);" width="15.672" height="12.153"/>
		</g>
		<polyline style="fill:#663F0F;" points="68.229,100.254 68.963,100.981 91.355,100.828 93.569,100.814 94.299,100.082     91.355,100.1 68.229,100.254   "/>
		<g>
			<defs>
				<path id="SVGID_28_" d="M92.578,193.412c-8.207,5.57-19.171,8.439-31.688,8.321l-0.007,0.732      c12.672,0.112,23.784-2.802,32.108-8.458l1.288-0.876l-0.728-0.389L92.578,193.412 M37.022,192.698      c-5.272-5.833-7.877-14.476-7.909-25.68h-0.734c0.025,11.403,2.708,20.199,8.105,26.163c5.496,6.04,13.703,9.176,24.398,9.284      l0.007-0.732C50.408,201.63,42.38,198.585,37.022,192.698z M28.381,100.706l0.728,0.714l0.004,65.599h-0.734L28.381,100.706z"/>
			</defs>
			<clipPath id="SVGID_29_">
				<use xlink:href="#SVGID_28_" style="overflow:visible;"/>
			</clipPath>
			<path style="clip-path:url(#SVGID_29_);fill:#815B33;" d="M92.578,193.412c-8.207,5.57-19.171,8.439-31.688,8.321l-0.007,0.732     c12.672,0.112,23.784-2.802,32.108-8.458l1.288-0.876l-0.728-0.389L92.578,193.412 M37.022,192.698     c-5.272-5.833-7.877-14.476-7.909-25.68h-0.734c0.025,11.403,2.708,20.199,8.105,26.163c5.496,6.04,13.703,9.176,24.398,9.284     l0.007-0.732C50.408,201.63,42.38,198.585,37.022,192.698z M28.381,100.706l0.728,0.714l0.004,65.599h-0.734L28.381,100.706z"/>
			
				<linearGradient id="SVGID_30_" gradientUnits="userSpaceOnUse" x1="-525.4819" y1="461.9199" x2="-520.8555" y2="461.9199" gradientTransform="matrix(14.2448 0 0 -24.8207 7513.77 11616.7744)">
				<stop offset="0" style="stop-color:#815B33"/>
				<stop offset="1" style="stop-color:#9C7955"/>
			</linearGradient>
			<rect x="28.379" y="100.706" style="clip-path:url(#SVGID_29_);fill:url(#SVGID_30_);" width="65.899" height="101.873"/>
		</g>
		<path style="fill:#8A643E;" d="M93.565,103.028c-0.1,29.167-0.106,58.958-0.018,88.554l0.004,1.161l0.728,0.389l-0.004-1.55    c-0.082-29.601-0.082-59.387,0.018-88.541l0.006-2.959l-0.729,0.732L93.565,103.028"/>
		<g>
			<defs>
				<path id="SVGID_31_" d="M190.306,158.29l-0.38,0.633c8.543,5.078,10.915,7.771,11.01,12.591l0.736-0.014      C201.563,166.359,199.115,163.54,190.306,158.29 M190.306,158.29l-0.38,0.633c-8.385-4.975-13.802-9.75-17.068-15.024      c-2.819-4.599-4.034-9.492-4.066-16.341l0.728-0.007C169.568,139.25,172.984,148.028,190.306,158.29z"/>
			</defs>
			<clipPath id="SVGID_32_">
				<use xlink:href="#SVGID_31_" style="overflow:visible;"/>
			</clipPath>
			<path style="clip-path:url(#SVGID_32_);fill:#492300;" d="M190.306,158.29l-0.38,0.633c8.543,5.078,10.915,7.771,11.01,12.591     l0.736-0.014C201.563,166.359,199.115,163.54,190.306,158.29 M190.306,158.29l-0.38,0.633     c-8.385-4.975-13.802-9.75-17.068-15.024c-2.819-4.599-4.034-9.492-4.066-16.341l0.728-0.007     C169.568,139.25,172.984,148.028,190.306,158.29z"/>
			
				<linearGradient id="SVGID_33_" gradientUnits="userSpaceOnUse" x1="-511.9863" y1="450.7773" x2="-507.3594" y2="450.7773" gradientTransform="matrix(7.1067 0 0 -12.3026 3807.3123 5695.2896)">
				<stop offset="0" style="stop-color:#492300"/>
				<stop offset="0.5" style="stop-color:#9C7955"/>
				<stop offset="1" style="stop-color:#492300"/>
			</linearGradient>
			<rect x="168.791" y="127.551" style="clip-path:url(#SVGID_32_);fill:url(#SVGID_33_);" width="32.881" height="43.963"/>
		</g>
		<path style="fill:#532D00;" d="M99.099,240.704c-0.221-43.321-0.282-87.921-0.178-132.533l0.007-1.184l-0.734-0.4l-0.004,1.583    c-0.1,44.612-0.05,89.216,0.178,132.542l0.018,2.9l0.728-0.732L99.099,240.704"/>
		<g>
			<defs>
				<path id="SVGID_34_" d="M138.685,173.335c-2.376,4.521-5.72,6.627-10.545,6.627l0.01,0.741c5.118,0,8.669-2.245,11.194-7.021      c2.688-5.11,4.03-13.17,4.039-23.949h-0.731C142.651,160.396,141.313,168.338,138.685,173.335 M128.14,179.962l0.01,0.741      c-1.722,0-3.271-0.312-4.433-0.637l0.728-0.574C125.479,179.759,126.758,179.962,128.14,179.962z"/>
			</defs>
			<clipPath id="SVGID_35_">
				<use xlink:href="#SVGID_34_" style="overflow:visible;"/>
			</clipPath>
			<path style="clip-path:url(#SVGID_35_);fill:#492300;" d="M138.685,173.335c-2.376,4.521-5.72,6.627-10.545,6.627l0.01,0.741     c5.118,0,8.669-2.245,11.194-7.021c2.688-5.11,4.03-13.17,4.039-23.949h-0.731C142.651,160.396,141.313,168.338,138.685,173.335      M128.14,179.962l0.01,0.741c-1.722,0-3.271-0.312-4.433-0.637l0.728-0.574C125.479,179.759,126.758,179.962,128.14,179.962z"/>
			
				<linearGradient id="SVGID_36_" gradientUnits="userSpaceOnUse" x1="-538.0625" y1="503.0889" x2="-533.4365" y2="503.0889" gradientTransform="matrix(-4.2513 0 0 9.4948 -2144.0632 -4611.5063)">
				<stop offset="0" style="stop-color:#492300"/>
				<stop offset="1" style="stop-color:#70491C"/>
			</linearGradient>
			<rect x="123.717" y="149.733" style="clip-path:url(#SVGID_35_);fill:url(#SVGID_36_);" width="19.666" height="30.97"/>
		</g>
		<g>
			<defs>
				<path id="SVGID_37_" d="M128.75,119.486L128.75,119.486v0.728c4.929,0,8.109,1.861,10.265,6.036      c2.444,4.694,3.632,12.383,3.637,23.484h0.731c-0.009-11.225-1.22-19.011-3.713-23.823      C137.37,121.454,133.995,119.486,128.75,119.486 M124.444,120.799l-0.728-0.542c1.324-0.425,3.163-0.771,5.033-0.771v0.728      C127.183,120.214,125.637,120.467,124.444,120.799z"/>
			</defs>
			<clipPath id="SVGID_38_">
				<use xlink:href="#SVGID_37_" style="overflow:visible;"/>
			</clipPath>
			<path style="clip-path:url(#SVGID_38_);fill:#492300;" d="M128.75,119.486L128.75,119.486v0.728     c4.929,0,8.109,1.861,10.265,6.036c2.444,4.694,3.632,12.383,3.637,23.484h0.731c-0.009-11.225-1.22-19.011-3.713-23.823     C137.37,121.454,133.995,119.486,128.75,119.486 M124.444,120.799l-0.728-0.542c1.324-0.425,3.163-0.771,5.033-0.771v0.728     C127.183,120.214,125.637,120.467,124.444,120.799z"/>
			
				<linearGradient id="SVGID_39_" gradientUnits="userSpaceOnUse" x1="-538.0625" y1="501.0254" x2="-533.4365" y2="501.0254" gradientTransform="matrix(-4.2513 0 0 9.3376 -2144.0632 -4543.7681)">
				<stop offset="0" style="stop-color:#492300"/>
				<stop offset="1" style="stop-color:#9C7955"/>
			</linearGradient>
			<rect x="123.717" y="119.486" style="clip-path:url(#SVGID_38_);fill:url(#SVGID_39_);" width="19.666" height="30.247"/>
		</g>
		<rect x="98.385" y="242.882" style="fill:#8A643E;" width="26.109" height="0.8"/>
		<g>
			<defs>
				<path id="SVGID_40_" d="M99.921,106.339c7.875-5.148,17.272-7.651,28.684-7.651v-0.728c-11.562,0-21.076,2.528-29.09,7.762      l-1.322,0.865l0.734,0.4L99.921,106.339 M128.605,97.961v0.728c12.555,0.018,22.86,4.798,29.804,13.85      c6.683,8.699,10.211,21.372,10.211,36.644h0.74c-0.018-15.44-3.592-28.266-10.363-37.096      C151.913,102.856,141.404,97.972,128.605,97.961z M123.722,201.102l0.727,0.867c1.929,0.284,4.016,0.429,6.285,0.429v-0.736      C128.167,201.68,125.827,201.472,123.722,201.102z M168.62,149.182h0.74c0,15.497-3.41,28.638-9.876,38.013      c-6.857,9.935-16.802,15.198-28.751,15.202v-0.736c11.701,0,21.433-5.146,28.146-14.891      C165.249,177.527,168.62,164.524,168.62,149.182z"/>
			</defs>
			<clipPath id="SVGID_41_">
				<use xlink:href="#SVGID_40_" style="overflow:visible;"/>
			</clipPath>
			<path style="clip-path:url(#SVGID_41_);fill:#3E1700;" d="M99.921,106.339c7.875-5.148,17.272-7.651,28.684-7.651v-0.728     c-11.562,0-21.076,2.528-29.09,7.762l-1.322,0.865l0.734,0.4L99.921,106.339 M128.605,97.961v0.728     c12.555,0.018,22.86,4.798,29.804,13.85c6.683,8.699,10.211,21.372,10.211,36.644h0.74c-0.018-15.44-3.592-28.266-10.363-37.096     C151.913,102.856,141.404,97.972,128.605,97.961z M123.722,201.102l0.727,0.867c1.929,0.284,4.016,0.429,6.285,0.429v-0.736     C128.167,201.68,125.827,201.472,123.722,201.102z M168.62,149.182h0.74c0,15.497-3.41,28.638-9.876,38.013     c-6.857,9.935-16.802,15.198-28.751,15.202v-0.736c11.701,0,21.433-5.146,28.146-14.891     C165.249,177.527,168.62,164.524,168.62,149.182z"/>
			
				<linearGradient id="SVGID_42_" gradientUnits="userSpaceOnUse" x1="-521.7788" y1="462.2061" x2="-517.1523" y2="462.2061" gradientTransform="matrix(15.3826 0 0 -25.3747 8124.4873 11878.5215)">
				<stop offset="0" style="stop-color:#3E1700"/>
				<stop offset="1" style="stop-color:#9C7955"/>
			</linearGradient>
			<rect x="98.193" y="97.961" style="clip-path:url(#SVGID_41_);fill:url(#SVGID_42_);" width="71.167" height="104.437"/>
		</g>
		<polyline style="fill:#8A643E;" points="222.648,131.158 223.395,133.001 223.331,106.656 222.599,107.013 222.648,131.158   "/>
		<g>
			<defs>
				<path id="SVGID_43_" d="M218.85,127.126c-3.461-3.689-9.524-7.658-16.143-7.775l-0.019,0.734      c6.397,0.111,12.267,3.969,15.637,7.547l5.069,5.37l-0.746-1.843L218.85,127.126 M202.707,119.351l-0.019,0.734      c-2.489-0.057-4.703,0.499-6.226,1.554c-1.658,1.127-2.479,2.842-2.539,5.216l-0.736-0.018      C193.359,119.925,199.901,119.301,202.707,119.351z"/>
			</defs>
			<clipPath id="SVGID_44_">
				<use xlink:href="#SVGID_43_" style="overflow:visible;"/>
			</clipPath>
			<path style="clip-path:url(#SVGID_44_);fill:#3E1700;" d="M218.85,127.126c-3.461-3.689-9.524-7.658-16.143-7.775l-0.019,0.734     c6.397,0.111,12.267,3.969,15.637,7.547l5.069,5.37l-0.746-1.843L218.85,127.126 M202.707,119.351l-0.019,0.734     c-2.489-0.057-4.703,0.499-6.226,1.554c-1.658,1.127-2.479,2.842-2.539,5.216l-0.736-0.018     C193.359,119.925,199.901,119.301,202.707,119.351z"/>
			
				<linearGradient id="SVGID_45_" gradientUnits="userSpaceOnUse" x1="-542.5874" y1="517.2715" x2="-537.9609" y2="517.2715" gradientTransform="matrix(-6.529 0 0 5.7613 -3319.1641 -2854.0271)">
				<stop offset="0" style="stop-color:#3E1700"/>
				<stop offset="1" style="stop-color:#9C7955"/>
			</linearGradient>
			<rect x="193.188" y="119.301" style="clip-path:url(#SVGID_44_);fill:url(#SVGID_45_);" width="30.207" height="13.7"/>
		</g>
		<g>
			<defs>
				<path id="SVGID_46_" d="M168.791,127.379c0,0.054,0,0.122,0,0.179l0.728-0.007c0-0.054,0-0.129,0-0.186      c0-10.389,5.038-16.987,9.267-20.705c5.34-4.681,12.577-7.441,19.815-7.583l-0.005-0.734      c-7.423,0.149-14.818,2.978-20.304,7.775C172.162,111.494,168.791,119.042,168.791,127.379 M198.601,99.077l-0.005-0.734      c12.13-0.228,20.019,4.556,23.642,7.441l1.094,0.872l-0.732,0.357l-0.822-0.66C218.226,103.534,210.509,98.849,198.601,99.077z"/>
			</defs>
			<clipPath id="SVGID_47_">
				<use xlink:href="#SVGID_46_" style="overflow:visible;"/>
			</clipPath>
			<path style="clip-path:url(#SVGID_47_);fill:#492300;" d="M168.791,127.379c0,0.054,0,0.122,0,0.179l0.728-0.007     c0-0.054,0-0.129,0-0.186c0-10.389,5.038-16.987,9.267-20.705c5.34-4.681,12.577-7.441,19.815-7.583l-0.005-0.734     c-7.423,0.149-14.818,2.978-20.304,7.775C172.162,111.494,168.791,119.042,168.791,127.379 M198.601,99.077l-0.005-0.734     c12.13-0.228,20.019,4.556,23.642,7.441l1.094,0.872l-0.732,0.357l-0.822-0.66C218.226,103.534,210.509,98.849,198.601,99.077z"/>
			
				<linearGradient id="SVGID_48_" gradientUnits="userSpaceOnUse" x1="-516.5596" y1="446.3057" x2="-511.9331" y2="446.3057" gradientTransform="matrix(11.7886 0 0 -9.1643 6258.3228 4202.9009)">
				<stop offset="0" style="stop-color:#492300"/>
				<stop offset="1" style="stop-color:#70491C"/>
			</linearGradient>
			<rect x="168.791" y="98.115" style="clip-path:url(#SVGID_47_);fill:url(#SVGID_48_);" width="54.54" height="29.443"/>
		</g>
		<path style="fill:#785228;" d="M123.753,240.74l0.005,2.205l0.736,0.736l-0.014-2.941c0,0-0.027-32.713-0.032-38.771l-0.727-0.867    C123.722,205.922,123.753,240.74,123.753,240.74"/>
		<g>
			<defs>
				<path id="SVGID_49_" d="M125.239,47.763c30.049-5.993,63.733-6.991,102.862-3.079l0.728-0.657      c-39.481-4.01-73.438-3.029-103.734,3.016c-40.292,8.069-74.44,25.279-101.534,51.14l0.741,0.321      C51.253,72.86,85.202,55.785,125.239,47.763"/>
			</defs>
			<clipPath id="SVGID_50_">
				<use xlink:href="#SVGID_49_" style="overflow:visible;"/>
			</clipPath>
			<path style="clip-path:url(#SVGID_50_);fill:#8C6741;" d="M125.239,47.763c30.049-5.993,63.733-6.991,102.862-3.079l0.728-0.657     c-39.481-4.01-73.438-3.029-103.734,3.016c-40.292,8.069-74.44,25.279-101.534,51.14l0.741,0.321     C51.253,72.86,85.202,55.785,125.239,47.763"/>
			
				<linearGradient id="SVGID_51_" gradientUnits="userSpaceOnUse" x1="-524.2217" y1="459.3701" x2="-519.5952" y2="459.3701" gradientTransform="matrix(44.3701 0 0 -15.4421 23283.3066 7162.8926)">
				<stop offset="0" style="stop-color:#8C6741"/>
				<stop offset="1" style="stop-color:#9C7955"/>
			</linearGradient>
			<rect x="23.561" y="40.018" style="clip-path:url(#SVGID_50_);fill:url(#SVGID_51_);" width="205.268" height="58.486"/>
		</g>
		<path style="fill:#3F1800;" d="M228.318,150.862c0,8.087-0.009,16.156-0.014,24.188c-0.022,24.646-8.949,45.079-25.851,59.121    c-14.534,12.279-58.836,32.207-76.176,39.477v0.805c17.159-7.192,61.958-27.315,76.65-39.726    c17.063-14.173,26.086-34.801,26.108-59.677c0.004-8.032,0.014-16.102,0.014-24.188c0-35.347-0.072-71.178-0.222-106.835    l-0.728,0.657C228.246,80.134,228.318,115.732,228.318,150.862"/>
		<g>
			<defs>
				<path id="SVGID_52_" d="M23.525,175.051c0.018,24.866,9.044,45.504,26.1,59.672c14.615,12.343,59.477,32.511,76.654,39.73      v-0.805c-17.355-7.296-61.713-27.274-76.187-39.495c-16.881-14.023-25.817-34.471-25.839-59.103      c0-7.915-0.007-15.938-0.007-24.075c0-17.111,0.013-34.677,0.056-52.472l-0.741-0.321c-0.032,17.906-0.05,35.578-0.05,52.793      C23.511,159.112,23.511,167.136,23.525,175.051"/>
			</defs>
			<clipPath id="SVGID_53_">
				<use xlink:href="#SVGID_52_" style="overflow:visible;"/>
			</clipPath>
			<path style="clip-path:url(#SVGID_53_);fill:#492300;" d="M23.525,175.051c0.018,24.866,9.044,45.504,26.1,59.672     c14.615,12.343,59.477,32.511,76.654,39.73v-0.805c-17.355-7.296-61.713-27.274-76.187-39.495     c-16.881-14.023-25.817-34.471-25.839-59.103c0-7.915-0.007-15.938-0.007-24.075c0-17.111,0.013-34.677,0.056-52.472     l-0.741-0.321c-0.032,17.906-0.05,35.578-0.05,52.793C23.511,159.112,23.511,167.136,23.525,175.051"/>
			
				<linearGradient id="SVGID_54_" gradientUnits="userSpaceOnUse" x1="-525.6836" y1="480.3887" x2="-521.0576" y2="480.3887" gradientTransform="matrix(-22.2141 0 0 40.9025 -11551.2891 -19462.8008)">
				<stop offset="0" style="stop-color:#492300"/>
				<stop offset="1" style="stop-color:#70491C"/>
			</linearGradient>
			<rect x="23.511" y="98.183" style="clip-path:url(#SVGID_53_);fill:url(#SVGID_54_);" width="102.767" height="176.271"/>
		</g>
		<path style="fill:#905800;" d="M161.445,272.334c16.896-7.942,39.197-19.241,49.466-27.938    c10.206-8.467,17.968-18.862,23.104-30.87c4.889-11.503,7.382-24.478,7.382-38.573V39.401l-1.459,0.87    c0,44.907,0,89.783,0,134.682c0,27.273-9.397,51.245-29.958,68.327c-19.657,16.635-83.864,43.155-83.706,42.997v1.59    c1.572-0.646,7.549-3.136,10.965-4.617C142.954,280.782,151.777,276.884,161.445,272.334"/>
		<g>
			<defs>
				<path id="SVGID_55_" d="M42.59,243.279c-20.545-17.082-29.942-41.054-29.942-68.327c0-44.898-0.013-89.774-0.013-134.686      l-1.466-0.865l0.018,135.551c0,14.096,2.485,27.07,7.38,38.573c5.125,12.008,12.892,22.403,23.098,30.884      c10.262,8.684,32.551,19.982,49.445,27.925c9.662,4.55,18.499,8.448,24.209,10.915c3.422,1.481,9.401,3.971,10.956,4.617v-1.59      C126.455,286.435,62.247,259.914,42.59,243.279"/>
			</defs>
			<clipPath id="SVGID_56_">
				<use xlink:href="#SVGID_55_" style="overflow:visible;"/>
			</clipPath>
			<path style="clip-path:url(#SVGID_56_);fill:#FFD568;" d="M42.59,243.279c-20.545-17.082-29.942-41.054-29.942-68.327     c0-44.898-0.013-89.774-0.013-134.686l-1.466-0.865l0.018,135.551c0,14.096,2.485,27.07,7.38,38.573     c5.125,12.008,12.892,22.403,23.098,30.884c10.262,8.684,32.551,19.982,49.445,27.925c9.662,4.55,18.499,8.448,24.209,10.915     c3.422,1.481,9.401,3.971,10.956,4.617v-1.59C126.455,286.435,62.247,259.914,42.59,243.279"/>
			
				<linearGradient id="SVGID_57_" gradientUnits="userSpaceOnUse" x1="-525.1777" y1="467.9658" x2="-520.553" y2="467.9658" gradientTransform="matrix(24.8811 0 0 -56.5076 13078.1816 26607.3066)">
				<stop offset="0" style="stop-color:#FFD568"/>
				<stop offset="0.8353" style="stop-color:#A36D12"/>
				<stop offset="1" style="stop-color:#905800"/>
			</linearGradient>
			<rect x="11.168" y="39.401" style="clip-path:url(#SVGID_56_);fill:url(#SVGID_57_);" width="115.287" height="248.465"/>
		</g>
		<path style="fill:#FFD568;" d="M126.274,15.359c-0.158,0.235,63.778-2.657,113.664,24.911l1.459-0.87l-0.759-0.411    c-41.56-22.976-92.954-25.196-113.104-25.085h-1.26h-1.238c-20.152-0.11-71.551,2.11-113.111,25.085l-0.757,0.411l1.466,0.865    C62.519,12.698,126.455,15.594,126.274,15.359"/>
		<g>
			<defs>
				<path id="SVGID_58_" d="M191.001,126.787l1.464,0.036c0.189-7.782,7.897-8.245,10.246-8.207l0.036-1.455      C197.087,117.047,191.173,119.55,191.001,126.787"/>
			</defs>
			<clipPath id="SVGID_59_">
				<use xlink:href="#SVGID_58_" style="overflow:visible;"/>
			</clipPath>
			<path style="clip-path:url(#SVGID_59_);fill:#905800;" d="M191.001,126.787l1.464,0.036c0.189-7.782,7.897-8.245,10.246-8.207     l0.036-1.455C197.087,117.047,191.173,119.55,191.001,126.787"/>
			
				<linearGradient id="SVGID_60_" gradientUnits="userSpaceOnUse" x1="-484.4263" y1="421.7637" x2="-479.8008" y2="421.7637" gradientTransform="matrix(2.5396 0 0 -4.9137 1421.226 2194.3447)">
				<stop offset="0" style="stop-color:#905800"/>
				<stop offset="1" style="stop-color:#905800"/>
			</linearGradient>
			<rect x="191.001" y="117.047" style="clip-path:url(#SVGID_59_);fill:url(#SVGID_60_);" width="11.746" height="9.776"/>
		</g>
		<g>
			<defs>
				<path id="SVGID_61_" d="M198.641,101.272l-0.014-1.468c-7.084,0.136-14.149,2.835-19.363,7.407      c-4.115,3.619-9.009,10.03-9.009,20.154c0,0.057,0,0.125,0,0.186l1.474-0.014C171.619,111.052,185.534,101.519,198.641,101.272"/>
			</defs>
			<clipPath id="SVGID_62_">
				<use xlink:href="#SVGID_61_" style="overflow:visible;"/>
			</clipPath>
			<path style="clip-path:url(#SVGID_62_);fill:#EFCB95;" d="M198.641,101.272l-0.014-1.468c-7.084,0.136-14.149,2.835-19.363,7.407     c-4.115,3.619-9.009,10.03-9.009,20.154c0,0.057,0,0.125,0,0.186l1.474-0.014C171.619,111.052,185.534,101.519,198.641,101.272"/>
			
				<linearGradient id="SVGID_63_" gradientUnits="userSpaceOnUse" x1="-509.9785" y1="445.1191" x2="-505.3521" y2="445.1191" gradientTransform="matrix(6.1359 0 0 -8.7975 3299.4512 4029.6221)">
				<stop offset="0" style="stop-color:#EFCB95"/>
				<stop offset="1" style="stop-color:#E2AB53"/>
			</linearGradient>
			<rect x="170.255" y="99.804" style="clip-path:url(#SVGID_62_);fill:url(#SVGID_63_);" width="28.386" height="27.747"/>
		</g>
		<g>
			<defs>
				<path id="SVGID_64_" d="M202.747,117.162l-0.036,1.455c6.85,0.118,13.103,4.217,16.676,8.003l2.534,2.695l-1.473-3.693      C216.355,121.275,209.714,117.272,202.747,117.162"/>
			</defs>
			<clipPath id="SVGID_65_">
				<use xlink:href="#SVGID_64_" style="overflow:visible;"/>
			</clipPath>
			<path style="clip-path:url(#SVGID_65_);fill:#905800;" d="M202.747,117.162l-0.036,1.455c6.85,0.118,13.103,4.217,16.676,8.003     l2.534,2.695l-1.473-3.693C216.355,121.275,209.714,117.272,202.747,117.162"/>
			
				<linearGradient id="SVGID_66_" gradientUnits="userSpaceOnUse" x1="-497.395" y1="426.4199" x2="-492.7695" y2="426.4199" gradientTransform="matrix(4.1528 0 0 -5.4267 2268.3081 2437.2903)">
				<stop offset="0" style="stop-color:#905800"/>
				<stop offset="0.5778" style="stop-color:#BF8934"/>
				<stop offset="1" style="stop-color:#E4AF5D"/>
			</linearGradient>
			<rect x="202.711" y="117.162" style="clip-path:url(#SVGID_65_);fill:url(#SVGID_66_);" width="19.21" height="12.153"/>
		</g>
		<g>
			<defs>
				<path id="SVGID_67_" d="M220.408,108.079l1.454-0.709l-0.542-0.438c-3.465-2.763-11.023-7.351-22.693-7.127l0.014,1.468      C209.624,101.063,216.947,105.323,220.408,108.079"/>
			</defs>
			<clipPath id="SVGID_68_">
				<use xlink:href="#SVGID_67_" style="overflow:visible;"/>
			</clipPath>
			<path style="clip-path:url(#SVGID_68_);fill:#E2AB53;" d="M220.408,108.079l1.454-0.709l-0.542-0.438     c-3.465-2.763-11.023-7.351-22.693-7.127l0.014,1.468C209.624,101.063,216.947,105.323,220.408,108.079"/>
			
				<linearGradient id="SVGID_69_" gradientUnits="userSpaceOnUse" x1="-502.5522" y1="421.7656" x2="-497.9258" y2="421.7656" gradientTransform="matrix(5.0224 0 0 -4.6368 2722.6301 2059.4834)">
				<stop offset="0" style="stop-color:#E2AB53"/>
				<stop offset="1" style="stop-color:#C27913"/>
			</linearGradient>
			<rect x="198.627" y="99.581" style="clip-path:url(#SVGID_68_);fill:url(#SVGID_69_);" width="23.235" height="8.498"/>
		</g>
		<path style="fill:#905800;" d="M220.448,125.622l1.473,3.693l-0.059-21.945l-1.454,0.709    C220.421,113.914,220.431,119.769,220.448,125.622"/>
		<g>
			<defs>
				<path id="SVGID_70_" d="M204.162,141.581l0.754-1.261l-1.59-0.956c-6.628-3.946-10.997-6.535-10.861-12.542l-1.464-0.036      C190.829,134.188,196.762,137.128,204.162,141.581"/>
			</defs>
			<clipPath id="SVGID_71_">
				<use xlink:href="#SVGID_70_" style="overflow:visible;"/>
			</clipPath>
			<path style="clip-path:url(#SVGID_71_);fill:#DDAC72;" d="M204.162,141.581l0.754-1.261l-1.59-0.956     c-6.628-3.946-10.997-6.535-10.861-12.542l-1.464-0.036C190.829,134.188,196.762,137.128,204.162,141.581"/>
			
				<linearGradient id="SVGID_72_" gradientUnits="userSpaceOnUse" x1="-607.0513" y1="455.1006" x2="-602.4248" y2="455.1006" gradientTransform="matrix(0 -3.1975 -5.8447 0 2857.8154 -1799.4854)">
				<stop offset="0" style="stop-color:#DDAC72"/>
				<stop offset="1" style="stop-color:#905800"/>
			</linearGradient>
			<rect x="190.829" y="126.787" style="clip-path:url(#SVGID_71_);fill:url(#SVGID_72_);" width="14.087" height="14.794"/>
		</g>
		<g>
			<defs>
				<path id="SVGID_73_" d="M202.404,171.482l1.464-0.027c-0.141-6.379-3.646-9.826-12.451-15.044l-0.741,1.256      C199.657,162.998,202.282,166.093,202.404,171.482"/>
			</defs>
			<clipPath id="SVGID_74_">
				<use xlink:href="#SVGID_73_" style="overflow:visible;"/>
			</clipPath>
			<path style="clip-path:url(#SVGID_74_);fill:#EABD79;" d="M202.404,171.482l1.464-0.027c-0.141-6.379-3.646-9.826-12.451-15.044     l-0.741,1.256C199.657,162.998,202.282,166.093,202.404,171.482"/>
			
				<linearGradient id="SVGID_75_" gradientUnits="userSpaceOnUse" x1="-561.8296" y1="519.9941" x2="-557.2041" y2="519.9941" gradientTransform="matrix(-2.8519 0 0 6.058 -1398.437 -2986.1836)">
				<stop offset="0" style="stop-color:#EABD79"/>
				<stop offset="1" style="stop-color:#C27913"/>
			</linearGradient>
			<rect x="190.676" y="156.411" style="clip-path:url(#SVGID_74_);fill:url(#SVGID_75_);" width="13.192" height="15.071"/>
		</g>
		<g>
			<defs>
				<path id="SVGID_76_" d="M172.551,193.394l-1.46,0.831l0.719,0.425c6.993,4.156,15.13,6.397,22.878,6.325l-0.014-1.469      C186.736,199.592,178.885,197.144,172.551,193.394"/>
			</defs>
			<clipPath id="SVGID_77_">
				<use xlink:href="#SVGID_76_" style="overflow:visible;"/>
			</clipPath>
			<path style="clip-path:url(#SVGID_77_);fill:#C27913;" d="M172.551,193.394l-1.46,0.831l0.719,0.425     c6.993,4.156,15.13,6.397,22.878,6.325l-0.014-1.469C186.736,199.592,178.885,197.144,172.551,193.394"/>
			
				<linearGradient id="SVGID_78_" gradientUnits="userSpaceOnUse" x1="-507.104" y1="403.2314" x2="-502.4775" y2="403.2314" gradientTransform="matrix(5.1003 0 0 -4.4543 2757.4749 1993.333)">
				<stop offset="0" style="stop-color:#C27913"/>
				<stop offset="0.8538" style="stop-color:#985D03"/>
				<stop offset="1" style="stop-color:#905800"/>
			</linearGradient>
			<rect x="171.091" y="193.394" style="clip-path:url(#SVGID_77_);fill:url(#SVGID_78_);" width="23.597" height="7.653"/>
		</g>
		<path style="fill:#EDC68C;" d="M172.604,174.617l-1.455-3.271l-0.059,22.878l1.46-0.831    C172.587,187.146,172.596,180.893,172.604,174.617"/>
		<g>
			<defs>
				<path id="SVGID_79_" d="M171.729,127.537l-1.474,0.014c0.055,11.426,3.402,20.027,20.421,30.116l0.741-1.256      C174.818,146.566,171.765,138.416,171.729,127.537"/>
			</defs>
			<clipPath id="SVGID_80_">
				<use xlink:href="#SVGID_79_" style="overflow:visible;"/>
			</clipPath>
			<path style="clip-path:url(#SVGID_80_);fill:#EFCB95;" d="M171.729,127.537l-1.474,0.014     c0.055,11.426,3.402,20.027,20.421,30.116l0.741-1.256C174.818,146.566,171.765,138.416,171.729,127.537"/>
			
				<linearGradient id="SVGID_81_" gradientUnits="userSpaceOnUse" x1="-505.3657" y1="444.2236" x2="-500.7407" y2="444.2236" gradientTransform="matrix(4.5753 0 0 -9.312 2482.4561 4279.2012)">
				<stop offset="0" style="stop-color:#EFCB95"/>
				<stop offset="1" style="stop-color:#C27913"/>
			</linearGradient>
			<rect x="170.255" y="127.537" style="clip-path:url(#SVGID_80_);fill:url(#SVGID_81_);" width="21.162" height="30.13"/>
		</g>
		<g>
			<defs>
				<path id="SVGID_82_" d="M191.887,182.822v-1.464c-5.733,0-13.088-3.14-18.315-7.834l-2.422-2.178l1.455,3.271      C177.782,179.28,185.485,182.822,191.887,182.822"/>
			</defs>
			<clipPath id="SVGID_83_">
				<use xlink:href="#SVGID_82_" style="overflow:visible;"/>
			</clipPath>
			<path style="clip-path:url(#SVGID_83_);fill:#EABD79;" d="M191.887,182.822v-1.464c-5.733,0-13.088-3.14-18.315-7.834     l-2.422-2.178l1.455,3.271C177.782,179.28,185.485,182.822,191.887,182.822"/>
			
				<linearGradient id="SVGID_84_" gradientUnits="userSpaceOnUse" x1="-545.7964" y1="528.8682" x2="-541.1694" y2="528.8682" gradientTransform="matrix(-4.4816 0 0 5.2801 -2254.1753 -2615.3826)">
				<stop offset="0" style="stop-color:#EABD79"/>
				<stop offset="1" style="stop-color:#C27913"/>
			</linearGradient>
			<rect x="171.149" y="171.347" style="clip-path:url(#SVGID_83_);fill:url(#SVGID_84_);" width="20.737" height="11.476"/>
		</g>
		<g>
			<defs>
				<path id="SVGID_85_" d="M194.674,199.506l0.014,1.469c20.227-0.222,29.755-14.584,30.22-28.706l-1.454-0.063      C223.023,185.108,214.449,199.303,194.674,199.506"/>
			</defs>
			<clipPath id="SVGID_86_">
				<use xlink:href="#SVGID_85_" style="overflow:visible;"/>
			</clipPath>
			<path style="clip-path:url(#SVGID_86_);fill:#905800;" d="M194.674,199.506l0.014,1.469c20.227-0.222,29.755-14.584,30.22-28.706     l-1.454-0.063C223.023,185.108,214.449,199.303,194.674,199.506"/>
			
				<linearGradient id="SVGID_87_" gradientUnits="userSpaceOnUse" x1="-507.875" y1="439.4629" x2="-503.2485" y2="439.4629" gradientTransform="matrix(6.5352 0 0 -9.018 3513.7202 4149.6836)">
				<stop offset="0" style="stop-color:#905800"/>
				<stop offset="1" style="stop-color:#9A6419"/>
			</linearGradient>
			<rect x="194.674" y="172.205" style="clip-path:url(#SVGID_86_);fill:url(#SVGID_87_);" width="30.233" height="28.77"/>
		</g>
		<g>
			<defs>
				<path id="SVGID_88_" d="M203.868,171.455l-1.464,0.027c0,0.1,0.009,0.198,0.009,0.303c0,2.715-0.858,5.028-2.458,6.663      c-1.856,1.897-4.653,2.91-8.068,2.91v1.464C199.215,182.822,204.021,178.494,203.868,171.455"/>
			</defs>
			<clipPath id="SVGID_89_">
				<use xlink:href="#SVGID_88_" style="overflow:visible;"/>
			</clipPath>
			<path style="clip-path:url(#SVGID_89_);fill:#EABD79;" d="M203.868,171.455l-1.464,0.027c0,0.1,0.009,0.198,0.009,0.303     c0,2.715-0.858,5.028-2.458,6.663c-1.856,1.897-4.653,2.91-8.068,2.91v1.464C199.215,182.822,204.021,178.494,203.868,171.455"/>
			
				<linearGradient id="SVGID_90_" gradientUnits="userSpaceOnUse" x1="-484.9321" y1="416.8838" x2="-480.3073" y2="416.8838" gradientTransform="matrix(2.5908 0 0 -5.2575 1448.2676 2368.9131)">
				<stop offset="0" style="stop-color:#EABD79"/>
				<stop offset="1" style="stop-color:#EABD79"/>
			</linearGradient>
			<rect x="191.887" y="171.455" style="clip-path:url(#SVGID_89_);fill:url(#SVGID_90_);" width="12.135" height="11.367"/>
		</g>
		<g>
			<defs>
				<path id="SVGID_91_" d="M223.453,172.205l1.454,0.063c0.19-7.066-0.845-12.076-3.479-16.743      c-3.054-5.417-8.304-10.26-16.513-15.205l-0.754,1.261C220.765,151.595,223.77,160.449,223.453,172.205"/>
			</defs>
			<clipPath id="SVGID_92_">
				<use xlink:href="#SVGID_91_" style="overflow:visible;"/>
			</clipPath>
			<path style="clip-path:url(#SVGID_92_);fill:#DDAC72;" d="M223.453,172.205l1.454,0.063c0.19-7.066-0.845-12.076-3.479-16.743     c-3.054-5.417-8.304-10.26-16.513-15.205l-0.754,1.261C220.765,151.595,223.77,160.449,223.453,172.205"/>
			
				<linearGradient id="SVGID_93_" gradientUnits="userSpaceOnUse" x1="-484.9546" y1="489.0742" x2="-480.3281" y2="489.0742" gradientTransform="matrix(0 6.9053 7.3254 0 -3368.0459 3489.0854)">
				<stop offset="0" style="stop-color:#DDAC72"/>
				<stop offset="1" style="stop-color:#9A6419"/>
			</linearGradient>
			<rect x="204.162" y="140.32" style="clip-path:url(#SVGID_92_);fill:url(#SVGID_93_);" width="20.936" height="31.948"/>
		</g>
		<g>
			<defs>
				<path id="SVGID_94_" d="M128.75,118.746c5.476,0.013,9.157,2.17,11.57,6.826c2.557,4.906,3.786,12.819,3.786,24.162l1.473-0.009      c0-22.962-4.961-32.434-16.829-32.434V118.746"/>
			</defs>
			<clipPath id="SVGID_95_">
				<use xlink:href="#SVGID_94_" style="overflow:visible;"/>
			</clipPath>
			<path style="clip-path:url(#SVGID_95_);fill:#EABD79;" d="M128.75,118.746c5.476,0.013,9.157,2.17,11.57,6.826     c2.557,4.906,3.786,12.819,3.786,24.162l1.473-0.009c0-22.962-4.961-32.434-16.829-32.434V118.746"/>
			
				<linearGradient id="SVGID_96_" gradientUnits="userSpaceOnUse" x1="-562.5098" y1="464.1406" x2="-557.8833" y2="464.1406" gradientTransform="matrix(0 -7.0123 -6.4374 0 3125.0293 -3794.7598)">
				<stop offset="0" style="stop-color:#EABD79"/>
				<stop offset="1" style="stop-color:#905800"/>
			</linearGradient>
			<rect x="128.75" y="117.291" style="clip-path:url(#SVGID_95_);fill:url(#SVGID_96_);" width="16.829" height="32.443"/>
		</g>
		<g>
			<defs>
				<path id="SVGID_97_" d="M128.75,118.746v-1.455c-2.752,0-5.589,0.66-7.242,1.468l1.468,0.974      C124.417,119.208,126.541,118.746,128.75,118.746"/>
			</defs>
			<clipPath id="SVGID_98_">
				<use xlink:href="#SVGID_97_" style="overflow:visible;"/>
			</clipPath>
			<path style="clip-path:url(#SVGID_98_);fill:#905800;" d="M128.75,118.746v-1.455c-2.752,0-5.589,0.66-7.242,1.468l1.468,0.974     C124.417,119.208,126.541,118.746,128.75,118.746"/>
			
				<linearGradient id="SVGID_99_" gradientUnits="userSpaceOnUse" x1="-494.9023" y1="398.1582" x2="-490.2749" y2="398.1582" gradientTransform="matrix(1.5651 0 0 -3.3281 896.0744 1443.6162)">
				<stop offset="0" style="stop-color:#905800"/>
				<stop offset="1" style="stop-color:#905800"/>
			</linearGradient>
			<rect x="121.508" y="117.291" style="clip-path:url(#SVGID_98_);fill:url(#SVGID_99_);" width="7.242" height="2.442"/>
		</g>
		<g>
			<defs>
				<path id="SVGID_100_" d="M130.733,199.466v1.478c11.443-0.019,20.972-5.056,27.55-14.589c6.284-9.116,9.604-21.97,9.604-37.172      h-1.459C166.429,179.059,153.377,199.447,130.733,199.466"/>
			</defs>
			<clipPath id="SVGID_101_">
				<use xlink:href="#SVGID_100_" style="overflow:visible;"/>
			</clipPath>
			<path style="clip-path:url(#SVGID_101_);fill:#905800;" d="M130.733,199.466v1.478c11.443-0.019,20.972-5.056,27.55-14.589     c6.284-9.116,9.604-21.97,9.604-37.172h-1.459C166.429,179.059,153.377,199.447,130.733,199.466"/>
			
				<linearGradient id="SVGID_102_" gradientUnits="userSpaceOnUse" x1="-517.0269" y1="452.0254" x2="-512.4009" y2="452.0254" gradientTransform="matrix(8.0316 0 0 -13.9884 4283.2813 6498.1558)">
				<stop offset="0" style="stop-color:#905800"/>
				<stop offset="1" style="stop-color:#905800"/>
			</linearGradient>
			<rect x="130.733" y="149.182" style="clip-path:url(#SVGID_101_);fill:url(#SVGID_102_);" width="37.154" height="51.761"/>
		</g>
		<g>
			<defs>
				<path id="SVGID_103_" d="M99.829,240.704v1.455l1.461-1.464c-0.224-43.271-0.278-88.314-0.186-132.517l-1.455-0.795      l-0.007,0.795C99.544,152.783,99.605,197.383,99.829,240.704"/>
			</defs>
			<clipPath id="SVGID_104_">
				<use xlink:href="#SVGID_103_" style="overflow:visible;"/>
			</clipPath>
			<path style="clip-path:url(#SVGID_104_);fill:#E0B27C;" d="M99.829,240.704v1.455l1.461-1.464     c-0.224-43.271-0.278-88.314-0.186-132.517l-1.455-0.795l-0.007,0.795C99.544,152.783,99.605,197.383,99.829,240.704"/>
			
				<linearGradient id="SVGID_105_" gradientUnits="userSpaceOnUse" x1="-515.249" y1="481.8838" x2="-510.623" y2="481.8838" gradientTransform="matrix(0 29.1327 3.1774 0 -1430.6951 15118.0127)">
				<stop offset="0" style="stop-color:#E0B27C"/>
				<stop offset="1" style="stop-color:#C27913"/>
			</linearGradient>
			<rect x="99.544" y="107.383" style="clip-path:url(#SVGID_104_);fill:url(#SVGID_105_);" width="1.746" height="134.776"/>
		</g>
		<g>
			<defs>
				<path id="SVGID_106_" d="M122.976,119.732l-1.468-0.974c0,20.909,0,41.976,0.007,62.906l1.461-1.043      C122.976,178.62,122.976,121.587,122.976,119.732"/>
			</defs>
			<clipPath id="SVGID_107_">
				<use xlink:href="#SVGID_106_" style="overflow:visible;"/>
			</clipPath>
			<path style="clip-path:url(#SVGID_107_);fill:#905800;" d="M122.976,119.732l-1.468-0.974c0,20.909,0,41.976,0.007,62.906     l1.461-1.043C122.976,178.62,122.976,121.587,122.976,119.732"/>
			
				<linearGradient id="SVGID_108_" gradientUnits="userSpaceOnUse" x1="-382.3892" y1="456.2949" x2="-377.7603" y2="456.2949" gradientTransform="matrix(0.3172 0 0 -16.3974 242.7938 7632.2666)">
				<stop offset="0" style="stop-color:#905800"/>
				<stop offset="1" style="stop-color:#905800"/>
			</linearGradient>
			<rect x="121.508" y="118.759" style="clip-path:url(#SVGID_107_);fill:url(#SVGID_108_);" width="1.468" height="62.906"/>
		</g>
		<g>
			<defs>
				<path id="SVGID_109_" d="M166.429,149.182h1.459c-0.004-15.112-3.47-27.625-10.057-36.206      c-6.799-8.855-16.905-13.542-29.226-13.553l-0.005,1.473C152.997,100.909,166.406,119.387,166.429,149.182"/>
			</defs>
			<clipPath id="SVGID_110_">
				<use xlink:href="#SVGID_109_" style="overflow:visible;"/>
			</clipPath>
			<path style="clip-path:url(#SVGID_110_);fill:#EDC68C;" d="M166.429,149.182h1.459c-0.004-15.112-3.47-27.625-10.057-36.206     c-6.799-8.855-16.905-13.542-29.226-13.553l-0.005,1.473C152.997,100.909,166.406,119.387,166.429,149.182"/>
			
				<linearGradient id="SVGID_111_" gradientUnits="userSpaceOnUse" x1="-517.5752" y1="454.293" x2="-512.9492" y2="454.293" gradientTransform="matrix(8.4923 0 0 -13.5561 4524.0146 6282.7026)">
				<stop offset="0" style="stop-color:#EDC68C"/>
				<stop offset="1" style="stop-color:#905800"/>
			</linearGradient>
			<rect x="128.601" y="99.423" style="clip-path:url(#SVGID_110_);fill:url(#SVGID_111_);" width="39.287" height="49.759"/>
		</g>
		<g>
			<defs>
				<path id="SVGID_112_" d="M128.601,100.896l0.005-1.473c-11.266,0-20.52,2.46-28.289,7.526l-0.667,0.434l1.455,0.795      C108.492,103.367,117.482,100.896,128.601,100.896"/>
			</defs>
			<clipPath id="SVGID_113_">
				<use xlink:href="#SVGID_112_" style="overflow:visible;"/>
			</clipPath>
			<path style="clip-path:url(#SVGID_113_);fill:#FFECC0;" d="M128.601,100.896l0.005-1.473c-11.266,0-20.52,2.46-28.289,7.526     l-0.667,0.434l1.455,0.795C108.492,103.367,117.482,100.896,128.601,100.896"/>
			
				<linearGradient id="SVGID_114_" gradientUnits="userSpaceOnUse" x1="-519.0864" y1="422.377" x2="-514.4604" y2="422.377" gradientTransform="matrix(6.259 0 0 -4.6925 3348.6062 2085.825)">
				<stop offset="0" style="stop-color:#FFECC0"/>
				<stop offset="0.1264" style="stop-color:#FDE7B9"/>
				<stop offset="1" style="stop-color:#EDC68C"/>
			</linearGradient>
			<rect x="99.65" y="99.423" style="clip-path:url(#SVGID_113_);fill:url(#SVGID_114_);" width="28.955" height="8.755"/>
		</g>
		<g>
			<defs>
				<path id="SVGID_115_" d="M121.521,198.332l1.468,1.875c2.277,0.483,4.879,0.736,7.744,0.736v-1.478      C126.541,199.483,123.563,198.933,121.521,198.332"/>
			</defs>
			<clipPath id="SVGID_116_">
				<use xlink:href="#SVGID_115_" style="overflow:visible;"/>
			</clipPath>
			<path style="clip-path:url(#SVGID_116_);fill:#905800;" d="M121.521,198.332l1.468,1.875c2.277,0.483,4.879,0.736,7.744,0.736     v-1.478C126.541,199.483,123.563,198.933,121.521,198.332"/>
			
				<linearGradient id="SVGID_117_" gradientUnits="userSpaceOnUse" x1="-549.5981" y1="565.9277" x2="-544.9736" y2="565.9277" gradientTransform="matrix(-1.992 0 0 3.3647 -964.0675 -1704.5087)">
				<stop offset="0" style="stop-color:#905800"/>
				<stop offset="1" style="stop-color:#C27913"/>
			</linearGradient>
			<rect x="121.521" y="198.332" style="clip-path:url(#SVGID_116_);fill:url(#SVGID_117_);" width="9.212" height="2.611"/>
		</g>
		<g>
			<defs>
				<path id="SVGID_118_" d="M121.551,240.74l1.475,1.482l-0.009-1.482c0,0-0.022-37.109-0.027-40.533l-1.468-1.875      C121.54,212.595,121.546,226.78,121.551,240.74"/>
			</defs>
			<clipPath id="SVGID_119_">
				<use xlink:href="#SVGID_118_" style="overflow:visible;"/>
			</clipPath>
			<path style="clip-path:url(#SVGID_119_);fill:#905800;" d="M121.551,240.74l1.475,1.482l-0.009-1.482     c0,0-0.022-37.109-0.027-40.533l-1.468-1.875C121.54,212.595,121.546,226.78,121.551,240.74"/>
			
				<linearGradient id="SVGID_120_" gradientUnits="userSpaceOnUse" x1="-385.7676" y1="446.2363" x2="-381.1392" y2="446.2363" gradientTransform="matrix(0.325 0 0 -12.287 246.9113 5703.1641)">
				<stop offset="0" style="stop-color:#905800"/>
				<stop offset="1" style="stop-color:#905800"/>
			</linearGradient>
			<rect x="121.521" y="198.332" style="clip-path:url(#SVGID_119_);fill:url(#SVGID_120_);" width="1.504" height="43.891"/>
		</g>
		<path style="fill:#905800;" d="M101.291,240.695l-1.461,1.464l23.197,0.063l-1.475-1.482    C114.794,240.74,108.042,240.728,101.291,240.695"/>
		<g>
			<defs>
				<path id="SVGID_121_" d="M144.106,149.733l1.473-0.009c0,22.395-5.639,33.17-17.43,33.174v-1.468      c5.349,0,9.221-2.427,11.836-7.409C142.724,168.799,144.106,160.64,144.106,149.733"/>
			</defs>
			<clipPath id="SVGID_122_">
				<use xlink:href="#SVGID_121_" style="overflow:visible;"/>
			</clipPath>
			<path style="clip-path:url(#SVGID_122_);fill:#FFE4A2;" d="M144.106,149.733l1.473-0.009c0,22.395-5.639,33.17-17.43,33.174     v-1.468c5.349,0,9.221-2.427,11.836-7.409C142.724,168.799,144.106,160.64,144.106,149.733"/>
			
				<linearGradient id="SVGID_123_" gradientUnits="userSpaceOnUse" x1="-509.2637" y1="444.2617" x2="-504.6365" y2="444.2617" gradientTransform="matrix(3.5289 0 0 -9.9706 1925.6538 4595.8643)">
				<stop offset="0" style="stop-color:#FFE4A2"/>
				<stop offset="0.1" style="stop-color:#FFE4A2"/>
				<stop offset="0.6" style="stop-color:#F7E4CA"/>
				<stop offset="1" style="stop-color:#EABD79"/>
			</linearGradient>
			<rect x="128.149" y="149.724" style="clip-path:url(#SVGID_122_);fill:url(#SVGID_123_);" width="17.43" height="33.174"/>
		</g>
		<path style="fill:#FFE4A2;" d="M128.149,181.431c-2.065,0-3.908-0.434-5.173-0.809l-1.461,1.043    c1.461,0.547,3.892,1.233,6.635,1.233V181.431"/>
		<g>
			<defs>
				<path id="SVGID_124_" d="M71.149,103.166l-1.466-1.461l-0.007,1.441c-0.068,15.803-0.111,31.781-0.111,47.744      c0,9.425,0.018,18.84,0.05,28.214l1.455,0.827C71.003,154.359,71.028,128.624,71.149,103.166"/>
			</defs>
			<clipPath id="SVGID_125_">
				<use xlink:href="#SVGID_124_" style="overflow:visible;"/>
			</clipPath>
			<path style="clip-path:url(#SVGID_125_);fill:#DB9A28;" d="M71.149,103.166l-1.466-1.461l-0.007,1.441     c-0.068,15.803-0.111,31.781-0.111,47.744c0,9.425,0.018,18.84,0.05,28.214l1.455,0.827     C71.003,154.359,71.028,128.624,71.149,103.166"/>
			
				<linearGradient id="SVGID_126_" gradientUnits="userSpaceOnUse" x1="-509.5488" y1="474.4844" x2="-504.9229" y2="474.4844" gradientTransform="matrix(0 16.9098 3.1425 0 -1420.7045 8718.0596)">
				<stop offset="0" style="stop-color:#DB9A28"/>
				<stop offset="1" style="stop-color:#C27913"/>
			</linearGradient>
			<rect x="69.566" y="101.704" style="clip-path:url(#SVGID_125_);fill:url(#SVGID_126_);" width="1.583" height="78.227"/>
		</g>
		<g>
			<defs>
				<path id="SVGID_127_" d="M91.351,191.582l1.466,0.777l-0.005-0.777c-0.081-29.597-0.092-59.387,0.018-88.554l0.007-1.466      l-1.468,1.466C91.256,132.398,91.256,162.157,91.351,191.582"/>
			</defs>
			<clipPath id="SVGID_128_">
				<use xlink:href="#SVGID_127_" style="overflow:visible;"/>
			</clipPath>
			<path style="clip-path:url(#SVGID_128_);fill:#C27913;" d="M91.351,191.582l1.466,0.777l-0.005-0.777     c-0.081-29.597-0.092-59.387,0.018-88.554l0.007-1.466l-1.468,1.466C91.256,132.398,91.256,162.157,91.351,191.582"/>
			
				<linearGradient id="SVGID_129_" gradientUnits="userSpaceOnUse" x1="-511.4863" y1="479.8965" x2="-506.8604" y2="479.8965" gradientTransform="matrix(0 19.627 3.1415 0 -1415.528 10140.5137)">
				<stop offset="0" style="stop-color:#C27913"/>
				<stop offset="0.8538" style="stop-color:#985D03"/>
				<stop offset="1" style="stop-color:#905800"/>
			</linearGradient>
			<rect x="91.256" y="101.562" style="clip-path:url(#SVGID_128_);fill:url(#SVGID_129_);" width="1.581" height="90.797"/>
		</g>
		<path style="fill:#F7E4CA;" d="M91.369,103.028l1.468-1.466l-1.468,0.006l-21.686,0.136l1.466,1.461    C77.858,103.109,84.606,103.064,91.369,103.028"/>
		<g>
			<defs>
				<path id="SVGID_130_" d="M60.915,199.533l-0.018,1.469c12.376,0.117,23.183-2.711,31.272-8.2l0.648-0.442l-1.466-0.777      C83.587,196.854,73.198,199.646,60.915,199.533"/>
			</defs>
			<clipPath id="SVGID_131_">
				<use xlink:href="#SVGID_130_" style="overflow:visible;"/>
			</clipPath>
			<path style="clip-path:url(#SVGID_131_);fill:#905800;" d="M60.915,199.533l-0.018,1.469c12.376,0.117,23.183-2.711,31.272-8.2     l0.648-0.442l-1.466-0.777C83.587,196.854,73.198,199.646,60.915,199.533"/>
			
				<linearGradient id="SVGID_132_" gradientUnits="userSpaceOnUse" x1="-523.8989" y1="409.209" x2="-519.2729" y2="409.209" gradientTransform="matrix(6.9002 0 0 -4.861 3675.9065 2185.5317)">
				<stop offset="0" style="stop-color:#905800"/>
				<stop offset="1" style="stop-color:#905800"/>
			</linearGradient>
			<rect x="60.896" y="191.582" style="clip-path:url(#SVGID_131_);fill:url(#SVGID_132_);" width="31.921" height="9.537"/>
		</g>
		<g>
			<defs>
				<path id="SVGID_133_" d="M61.545,182.316c4.086,0.036,7.344-0.877,9.526-2.386l-1.455-0.827      c-2.028,1.147-4.841,1.785-8.064,1.758L61.545,182.316 M61.545,182.316l0.006-1.455c-3.503-0.032-5.934-1.419-7.414-4.251      c-1.098-2.105-1.658-5.002-1.669-8.606h-1.461C51.018,173.732,52.376,182.253,61.545,182.316z M51.106,103.351l1.473-1.482      l-0.007,1.482c-0.097,21.554-0.136,43.31-0.104,64.653h-1.461C50.968,146.431,51.007,124.833,51.106,103.351z"/>
			</defs>
			<clipPath id="SVGID_134_">
				<use xlink:href="#SVGID_133_" style="overflow:visible;"/>
			</clipPath>
			<linearGradient id="SVGID_135_" gradientUnits="userSpaceOnUse" x1="50.9922" y1="142.0933" x2="71.0708" y2="142.0933">
				<stop offset="0" style="stop-color:#CE8E3E"/>
				<stop offset="1" style="stop-color:#FFE7B0"/>
			</linearGradient>
			<path style="clip-path:url(#SVGID_134_);fill:url(#SVGID_135_);" d="M61.545,182.316c4.086,0.036,7.344-0.877,9.526-2.386     l-1.455-0.827c-2.028,1.147-4.841,1.785-8.064,1.758L61.545,182.316 M61.545,182.316l0.006-1.455     c-3.503-0.032-5.934-1.419-7.414-4.251c-1.098-2.105-1.658-5.002-1.669-8.606h-1.461     C51.018,173.732,52.376,182.253,61.545,182.316z M51.106,103.351l1.473-1.482l-0.007,1.482     c-0.097,21.554-0.136,43.31-0.104,64.653h-1.461C50.968,146.431,51.007,124.833,51.106,103.351z"/>
		</g>
		<g>
			<defs>
				<path id="SVGID_136_" d="M31.316,167.019h-1.471c0.021,11.019,2.571,19.504,7.719,25.178c5.216,5.742,13.065,8.692,23.333,8.806      l0.018-1.469C41.079,199.33,31.352,188.36,31.316,167.019"/>
			</defs>
			<clipPath id="SVGID_137_">
				<use xlink:href="#SVGID_136_" style="overflow:visible;"/>
			</clipPath>
			<path style="clip-path:url(#SVGID_137_);fill:#DB9A28;" d="M31.316,167.019h-1.471c0.021,11.019,2.571,19.504,7.719,25.178     c5.216,5.742,13.065,8.692,23.333,8.806l0.018-1.469C41.079,199.33,31.352,188.36,31.316,167.019"/>
			
				<linearGradient id="SVGID_138_" gradientUnits="userSpaceOnUse" x1="-527.5342" y1="443.3877" x2="-522.9077" y2="443.3877" gradientTransform="matrix(6.7156 0 0 -10.1452 3572.5647 4682.2866)">
				<stop offset="0" style="stop-color:#DB9A28"/>
				<stop offset="0.9376" style="stop-color:#955C03"/>
				<stop offset="1" style="stop-color:#905800"/>
			</linearGradient>
			<rect x="29.845" y="167.019" style="clip-path:url(#SVGID_137_);fill:url(#SVGID_138_);" width="31.069" height="33.983"/>
		</g>
		<path style="fill:#FAEFE1;" d="M51.106,103.351l1.473-1.482l-22.729,0.278l1.468,1.443    C37.853,103.498,44.452,103.412,51.106,103.351"/>
		<g>
			<defs>
				<polyline id="SVGID_139_" points="29.845,167.019 31.316,167.019 31.318,103.59 29.85,102.147 29.845,167.019     "/>
			</defs>
			<clipPath id="SVGID_140_">
				<use xlink:href="#SVGID_139_" style="overflow:visible;"/>
			</clipPath>
			<rect x="29.845" y="102.147" style="clip-path:url(#SVGID_140_);fill:#DB9A28;" width="1.473" height="64.872"/>
			
				<linearGradient id="SVGID_141_" gradientUnits="userSpaceOnUse" x1="-543.9751" y1="481.5029" x2="-539.3486" y2="481.5029" gradientTransform="matrix(0 -14.0223 -3.1179 0 1531.8469 -7460.73)">
				<stop offset="0" style="stop-color:#DB9A28"/>
				<stop offset="0.9376" style="stop-color:#955C03"/>
				<stop offset="1" style="stop-color:#905800"/>
			</linearGradient>
			<rect x="29.845" y="102.147" style="clip-path:url(#SVGID_140_);fill:url(#SVGID_141_);" width="1.473" height="64.872"/>
		</g>
		<path style="fill:#C27913;" d="M124.955,46.324c30.536-6.09,64.772-7.059,104.61-2.963l1.464-1.333    c-33.256-3.497-69.896-4.42-106.364,2.855C88.268,52.17,52.042,67.655,21.361,97.22l1.466,0.642    C50.056,71.785,84.414,54.448,124.955,46.324"/>
		<path style="fill:#FFD568;" d="M229.565,43.361c0.145,35.88,0.226,71.933,0.226,107.501c0,8.087-0.009,16.156-0.014,24.188    c-0.031,25.093-9.144,45.929-26.375,60.241c-14.841,12.537-60.154,32.854-77.124,39.951v1.6    c13.396-5.58,62.211-27.03,78.073-40.426c17.786-14.773,26.872-36.065,26.895-61.366c0.036-44.403-0.027-88.893-0.217-133.023    L229.565,43.361"/>
		<g>
			<defs>
				<path id="SVGID_142_" d="M49.15,235.292c-17.22-14.321-26.341-35.148-26.359-60.241c-0.007-7.905-0.011-15.938-0.011-24.075      c0-17.319,0.016-35.097,0.047-53.114l-1.466-0.642c-0.043,25.91-0.068,51.89-0.039,77.831      c0.018,25.301,9.101,46.593,26.897,61.366c15.865,13.396,64.693,34.846,78.059,40.426v-1.6      C109.287,268.123,63.919,247.757,49.15,235.292"/>
			</defs>
			<clipPath id="SVGID_143_">
				<use xlink:href="#SVGID_142_" style="overflow:visible;"/>
			</clipPath>
			<path style="clip-path:url(#SVGID_143_);fill:#C27913;" d="M49.15,235.292c-17.22-14.321-26.341-35.148-26.359-60.241     c-0.007-7.905-0.011-15.938-0.011-24.075c0-17.319,0.016-35.097,0.047-53.114l-1.466-0.642     c-0.043,25.91-0.068,51.89-0.039,77.831c0.018,25.301,9.101,46.593,26.897,61.366c15.865,13.396,64.693,34.846,78.059,40.426     v-1.6C109.287,268.123,63.919,247.757,49.15,235.292"/>
			
				<linearGradient id="SVGID_144_" gradientUnits="userSpaceOnUse" x1="-533.1118" y1="472.7129" x2="-528.4854" y2="472.7129" gradientTransform="matrix(0 -38.8261 -25.494 0 12125.0967 -20421.8203)">
				<stop offset="0" style="stop-color:#C27913"/>
				<stop offset="0.3" style="stop-color:#DB9A28"/>
				<stop offset="1" style="stop-color:#C27913"/>
			</linearGradient>
			<rect x="21.293" y="97.22" style="clip-path:url(#SVGID_143_);fill:url(#SVGID_144_);" width="104.985" height="179.623"/>
		</g>
		<g>
			<defs>
				<path id="SVGID_145_" d="M203.863,171.455c-0.136-6.379-3.637-9.826-12.446-15.054c-16.59-9.84-19.652-17.992-19.698-28.864      c-0.1-16.492,13.815-26.018,26.927-26.265c10.969-0.21,18.302,4.055,21.758,6.806c0.018,5.839,0.031,11.69,0.036,17.536      c-4.089-4.346-10.729-8.329-17.701-8.453c-5.656-0.106-11.565,2.388-11.746,9.625c-0.163,7.391,5.77,10.341,13.165,14.794      c16.599,10.014,19.612,18.859,19.291,30.624c-0.425,12.894-8.999,27.08-28.778,27.297c-7.925,0.081-15.795-2.367-22.119-6.108      c0.026-6.248,0.045-12.505,0.054-18.785c5.178,4.653,12.881,8.204,19.273,8.204      C199.215,182.809,204.021,178.503,203.863,171.455 M121.508,118.752c1.653-0.802,4.486-1.461,7.242-1.461      c11.877,0,16.811,9.479,16.829,32.434c-0.01,22.381-5.652,33.17-17.435,33.17c-2.751,0-5.164-0.688-6.637-1.238      C121.503,160.734,121.505,139.674,121.508,118.752z M121.548,240.745c-0.009-13.979-0.025-28.142-0.027-42.409      c2.028,0.597,5.02,1.139,9.207,1.134c22.644-0.022,35.695-20.411,35.695-50.288c-0.014-29.795-13.432-48.273-37.823-48.287      c-11.118,0-20.116,2.471-27.493,7.283c-0.102,44.203-0.041,89.246,0.176,132.508      C108.033,240.723,114.792,240.74,121.548,240.745z M61.545,182.316c4.086,0.026,7.346-0.895,9.528-2.404      c-0.072-25.562-0.05-51.282,0.075-76.747c6.711-0.056,13.458-0.102,20.222-0.131c-0.099,29.364-0.106,59.118-0.018,88.542      c-7.762,5.269-18.146,8.069-30.43,7.956c-19.836-0.203-29.567-11.182-29.605-32.523c0-21.144,0.002-42.319,0.002-63.419      c6.535-0.093,13.143-0.165,19.791-0.239c-0.102,21.469-0.138,43.086-0.102,64.648C51.025,173.728,52.38,182.253,61.545,182.316z      "/>
			</defs>
			<clipPath id="SVGID_146_">
				<use xlink:href="#SVGID_145_" style="overflow:visible;"/>
			</clipPath>
			<path style="clip-path:url(#SVGID_146_);fill:#DA9017;" d="M203.863,171.455c-0.136-6.379-3.637-9.826-12.446-15.054     c-16.59-9.84-19.652-17.992-19.698-28.864c-0.1-16.492,13.815-26.018,26.927-26.265c10.969-0.21,18.302,4.055,21.758,6.806     c0.018,5.839,0.031,11.69,0.036,17.536c-4.089-4.346-10.729-8.329-17.701-8.453c-5.656-0.106-11.565,2.388-11.746,9.625     c-0.163,7.391,5.77,10.341,13.165,14.794c16.599,10.014,19.612,18.859,19.291,30.624c-0.425,12.894-8.999,27.08-28.778,27.297     c-7.925,0.081-15.795-2.367-22.119-6.108c0.026-6.248,0.045-12.505,0.054-18.785c5.178,4.653,12.881,8.204,19.273,8.204     C199.215,182.809,204.021,178.503,203.863,171.455 M121.508,118.752c1.653-0.802,4.486-1.461,7.242-1.461     c11.877,0,16.811,9.479,16.829,32.434c-0.01,22.381-5.652,33.17-17.435,33.17c-2.751,0-5.164-0.688-6.637-1.238     C121.503,160.734,121.505,139.674,121.508,118.752z M121.548,240.745c-0.009-13.979-0.025-28.142-0.027-42.409     c2.028,0.597,5.02,1.139,9.207,1.134c22.644-0.022,35.695-20.411,35.695-50.288c-0.014-29.795-13.432-48.273-37.823-48.287     c-11.118,0-20.116,2.471-27.493,7.283c-0.102,44.203-0.041,89.246,0.176,132.508C108.033,240.723,114.792,240.74,121.548,240.745     z M61.545,182.316c4.086,0.026,7.346-0.895,9.528-2.404c-0.072-25.562-0.05-51.282,0.075-76.747     c6.711-0.056,13.458-0.102,20.222-0.131c-0.099,29.364-0.106,59.118-0.018,88.542c-7.762,5.269-18.146,8.069-30.43,7.956     c-19.836-0.203-29.567-11.182-29.605-32.523c0-21.144,0.002-42.319,0.002-63.419c6.535-0.093,13.143-0.165,19.791-0.239     c-0.102,21.469-0.138,43.086-0.102,64.648C51.025,173.728,52.38,182.253,61.545,182.316z"/>
			<radialGradient id="SVGID_147_" cx="65.1665" cy="124.8335" r="132.3335" gradientUnits="userSpaceOnUse">
				<stop offset="0" style="stop-color:#FFE7B0"/>
				<stop offset="0.5275" style="stop-color:#FEBF52"/>
				<stop offset="0.5568" style="stop-color:#F9B94C"/>
				<stop offset="1" style="stop-color:#DA9017"/>
			</radialGradient>
			<rect x="30.833" y="100.833" style="clip-path:url(#SVGID_146_);fill:url(#SVGID_147_);" width="193.333" height="140.667"/>
		</g>
		<path style="fill:#905800;" d="M201.501,289.456v-9.211l-3.009,9.211h-1.78l-2.964-9.211v9.211h-2.291v-13.052h3.041l3.126,9.822    l3.153-9.822h3.086v13.052H201.501 M186.344,278.365v11.091h-2.49v-11.091h-3.307v-1.961h9.099v1.961H186.344z"/>
	</g>
</g>
</svg>